<svg width="89" height="55" viewBox="0 0 89 55" fill="none" xmlns="http://www.w3.org/2000/svg">
<rect x="0.967392" y="27.0313" width="87.0652" height="1.08125" fill="#E94040"/>
<path d="M12.9727 18.2578V21H3.89062V18.2578H12.9727ZM5.03906 3.9375V21H1.52344V3.9375H5.03906ZM11.7891 10.8867V13.5586H3.89062V10.8867H11.7891ZM12.9609 3.9375V6.69141H3.89062V3.9375H12.9609ZM16.6289 3.9375H19.6055L23.9883 16.4648L28.3711 3.9375H31.3477L25.1836 21H22.793L16.6289 3.9375ZM15.0234 3.9375H17.9883L18.5273 16.1484V21H15.0234V3.9375ZM29.9883 3.9375H32.9648V21H29.4492V16.1484L29.9883 3.9375ZM48.3867 18.2578V21H36.293V18.2578H48.3867ZM48.2109 5.89453L37.8516 21H35.3789V18.9844L45.8203 3.9375H48.2109V5.89453ZM47.0039 3.9375V6.69141H35.3906V3.9375H47.0039ZM57.7266 6.85547L53.0859 21H49.3477L55.6875 3.9375H58.0664L57.7266 6.85547ZM61.582 21L56.9297 6.85547L56.5547 3.9375H58.957L65.332 21H61.582ZM61.3711 14.6484V17.4023H52.3594V14.6484H61.3711ZM66.9141 3.9375H73.2773C74.582 3.9375 75.7031 4.13281 76.6406 4.52344C77.5859 4.91406 78.3125 5.49219 78.8203 6.25781C79.3281 7.02344 79.582 7.96484 79.582 9.08203C79.582 9.99609 79.4258 10.7812 79.1133 11.4375C78.8086 12.0859 78.375 12.6289 77.8125 13.0664C77.2578 13.4961 76.6055 13.8398 75.8555 14.0977L74.7422 14.6836H69.2109L69.1875 11.9414H73.3008C73.918 11.9414 74.4297 11.832 74.8359 11.6133C75.2422 11.3945 75.5469 11.0898 75.75 10.6992C75.9609 10.3086 76.0664 9.85547 76.0664 9.33984C76.0664 8.79297 75.9648 8.32031 75.7617 7.92188C75.5586 7.52344 75.25 7.21875 74.8359 7.00781C74.4219 6.79688 73.9023 6.69141 73.2773 6.69141H70.4297V21H66.9141V3.9375ZM76.4531 21L72.5625 13.3945L76.2773 13.3711L80.2148 20.8359V21H76.4531ZM86.0273 3.9375V21H82.5234V3.9375H86.0273Z" fill="#E94040"/>
<path d="M26.6433 49.0313H22.0751V31.5768H27.0865C28.6944 31.5768 30.0694 31.9234 31.2115 32.6166C32.3592 33.3041 33.237 34.2927 33.845 35.5825C34.4586 36.8723 34.7626 38.4234 34.7569 40.2359C34.7512 42.0938 34.4274 43.6791 33.7853 44.9916C33.149 46.2984 32.2257 47.2984 31.0154 47.9916C29.8109 48.6848 28.3535 49.0313 26.6433 49.0313ZM22.6206 48.4859H26.6433C28.2569 48.4859 29.6291 48.1592 30.7598 47.5058C31.8904 46.8467 32.7484 45.9007 33.3336 44.6677C33.9245 43.4348 34.2171 41.9575 34.2115 40.2359C34.2058 38.537 33.9217 37.0825 33.3592 35.8722C32.8024 34.662 31.9956 33.7359 30.9387 33.0938C29.8819 32.4461 28.5978 32.1222 27.0865 32.1222H22.6206V48.4859ZM39.2313 49.0313V31.5768H48.5382V32.1222H39.7768V40.0313H48.0268V40.5768H39.7768V48.4859H48.7768V49.0313H39.2313ZM51.8833 31.5768L57.8833 48.3495H57.9515L63.9515 31.5768H64.5311L58.2924 49.0313H57.5424L51.3038 31.5768H51.8833Z" fill="#E94040"/>
</svg>
